# xmcd
#
# Track frame offsets:
#	150
#	14292
#	31964
#	47289
#	63903
#	76700
#	90147
#	103149
#	122066
#	133026
#	152170
#	169110
#	183127
#	197634
#
# Disc length: 2821 seconds
#
# Revision: 0
# Processed by: cddbd v1.5.2PL0 Copyright (c) Steve Scherf et al.
# Submitted via: EasyCDDAExtractor 4.6.0.1
#
DISCID=9f0b030e
DTITLE=Mark Chesnutt - Singles 1990 - 1994
DYEAR=1994
DGENRE=Country
TTITLE0=Bubba Shot The Jukebox
TTITLE1=Ol' Country
TTITLE2=I Just Wanted You To Know
TTITLE3=Too Cold At Home
TTITLE4=Your Love Is A Miracle
TTITLE5=It Sure Is Monday
TTITLE6=Blame It On Texas
TTITLE7=Almost Goodbye
TTITLE8=Old Flames Have New Names
TTITLE9=I'll Think Of Something
TTITLE10=She Dreams
TTITLE11=Brother Jukebox
TTITLE12=Woman, Sensuous Woman
TTITLE13=Broken Promise Land
EXTD=
EXTT0=
EXTT1=
EXTT2=
EXTT3=
EXTT4=
EXTT5=
EXTT6=
EXTT7=
EXTT8=
EXTT9=
EXTT10=
EXTT11=
EXTT12=
EXTT13=
PLAYORDER=
